<?xml version="1.0" encoding="UTF-8" standalone="no"?>
<!-- Created with Inkscape (http://www.inkscape.org/) -->

<svg
   width="1024"
   height="1024"
   viewBox="0 0 270.93333 270.93333"
   version="1.1"
   id="svg1"
   xml:space="preserve"
   inkscape:export-filename="trinity_lightmode.png"
   inkscape:export-xdpi="96"
   inkscape:export-ydpi="96"
   inkscape:version="1.3.2 (091e20e, 2023-11-25, custom)"
   sodipodi:docname="Trinity_icon.svg"
   xmlns:inkscape="http://www.inkscape.org/namespaces/inkscape"
   xmlns:sodipodi="http://sodipodi.sourceforge.net/DTD/sodipodi-0.dtd"
   xmlns:xlink="http://www.w3.org/1999/xlink"
   xmlns="http://www.w3.org/2000/svg"
   xmlns:svg="http://www.w3.org/2000/svg"><sodipodi:namedview
     id="namedview1"
     pagecolor="#505050"
     bordercolor="#eeeeee"
     borderopacity="1"
     inkscape:showpageshadow="0"
     inkscape:pageopacity="0"
     inkscape:pagecheckerboard="0"
     inkscape:deskcolor="#505050"
     inkscape:document-units="px"
     showguides="true"
     inkscape:zoom="0.69219277"
     inkscape:cx="385.7307"
     inkscape:cy="503.47246"
     inkscape:window-width="1920"
     inkscape:window-height="991"
     inkscape:window-x="-9"
     inkscape:window-y="-9"
     inkscape:window-maximized="1"
     inkscape:current-layer="layer3"><sodipodi:guide
       position="0,0"
       orientation="0,1"
       id="guide3"
       inkscape:locked="false"
       inkscape:label=""
       inkscape:color="rgb(0,134,229)" /><sodipodi:guide
       position="0,270.93333"
       orientation="0,1"
       id="guide4"
       inkscape:locked="false"
       inkscape:label=""
       inkscape:color="rgb(0,134,229)" /><sodipodi:guide
       position="0,12.7"
       orientation="0,1"
       id="guide7"
       inkscape:locked="false"
       inkscape:label=""
       inkscape:color="rgb(0,134,229)" /><sodipodi:guide
       position="0,258.23333"
       orientation="0,1"
       id="guide8"
       inkscape:label=""
       inkscape:locked="false"
       inkscape:color="rgb(0,134,229)" /></sodipodi:namedview><defs
     id="defs1"><linearGradient
       id="linearGradient2"><stop
         style="stop-color:#000000;stop-opacity:1;"
         offset="0.14671814"
         id="stop23" /><stop
         style="stop-color:#00ff00;stop-opacity:1;"
         offset="0.25175792"
         id="stop24" /><stop
         style="stop-color:#000000;stop-opacity:1;"
         offset="0.32985327"
         id="stop25" /><stop
         style="stop-color:#000000;stop-opacity:1;"
         offset="0.50127029"
         id="stop26" /><stop
         style="stop-color:#000000;stop-opacity:1;"
         offset="0.65878379"
         id="stop27" /><stop
         style="stop-color:#00ff00;stop-opacity:1;"
         offset="0.75217181"
         id="stop28" /><stop
         style="stop-color:#000000;stop-opacity:1;"
         offset="0.84684682"
         id="stop29" /></linearGradient><linearGradient
       id="linearGradient2-1"><stop
         style="stop-color:#999999;stop-opacity:1;"
         offset="0.14671814"
         id="stop2" /><stop
         style="stop-color:#008000;stop-opacity:1;"
         offset="0.25175792"
         id="stop4" /><stop
         style="stop-color:#999999;stop-opacity:1;"
         offset="0.32985327"
         id="stop5" /><stop
         style="stop-color:#999999;stop-opacity:1;"
         offset="0.50127029"
         id="stop8" /><stop
         style="stop-color:#999999;stop-opacity:1;"
         offset="0.65878379"
         id="stop6" /><stop
         style="stop-color:#008000;stop-opacity:1;"
         offset="0.75217181"
         id="stop7" /><stop
         style="stop-color:#999999;stop-opacity:1;"
         offset="0.84684682"
         id="stop3" /></linearGradient><linearGradient
       inkscape:collect="always"
       xlink:href="#linearGradient2"
       id="linearGradient3"
       x1="63.534786"
       y1="120.33135"
       x2="176.65068"
       y2="147.75117"
       gradientUnits="userSpaceOnUse" /></defs><g
     inkscape:groupmode="layer"
     id="layer3"
     inkscape:label="Base Icon /w bg"
     style="display:inline"><rect
       style="font-variation-settings:normal;opacity:1;vector-effect:none;fill:#ffffff;fill-opacity:1;stroke:none;stroke-width:3.75735;stroke-linecap:butt;stroke-linejoin:miter;stroke-miterlimit:4;stroke-dasharray:none;stroke-dashoffset:0;stroke-opacity:1;-inkscape-stroke:none"
       id="rect8"
       width="270.93332"
       height="270.93332"
       x="0"
       y="0"
       inkscape:label="BG" /><g
       id="g8"
       transform="matrix(1.0354691,0,0,1.0354691,-9.9693565,2.1482555)"
       inkscape:label="Icon"><path
         style="display:inline;fill:#00ff00;stroke:#000000;stroke-width:0.0163117"
         d="m 190.07529,168.48004 c 0.22114,3.82811 7.08949,6.62823 11.48855,7.38969 -10.76181,19.28373 -21.28213,29.9224 -40.48222,41.96071 -2.65774,-9.38833 -7.48287,-12.38474 -12.2977,-15.41147 -5.47577,-3.45423 -32.70383,15.20016 -31.84731,23.73649 0.99591,11.54718 7.56621,17.81487 27.58081,21.1492 43.33463,-20.2965 62.71083,-39.04546 87.23057,-86.86811 -1.5499,-9.03286 -3.23494,-18.93236 -13.29043,-27.05364 -2.70175,-1.66566 -7.11577,-4.52845 -9.82564,-2.43803 -10.20401,7.53625 -19.14622,25.54026 -18.55663,37.53516 z"
         id="path4-6"
         sodipodi:nodetypes="cccccccccc"
         inkscape:label="Phone" /><g
         id="g2"
         inkscape:label="Trinity"><g
           id="g1"
           inkscape:label="glasses"
           style="fill:url(#linearGradient3)"
           transform="translate(11.112501,12.700002)"><path
             style="display:inline;fill:url(#linearGradient3);fill-opacity:1;stroke:#000000;stroke-width:0.0181237"
             d="m 87.341754,146.50775 c 10.675625,2.15708 18.891866,3.26516 26.731286,-12.43063 7.83942,-15.69579 -51.321934,-28.95744 -50.538253,-13.74577 0.78368,15.21163 13.131366,24.01933 23.806967,26.1764 z"
             id="path1-96"
             sodipodi:nodetypes="zzzz" /><path
             style="display:inline;fill:url(#linearGradient3);fill-opacity:1;stroke:#000000;stroke-width:0.0181237"
             d="m 152.82692,146.50775 c -10.67563,2.15708 -18.89187,3.26516 -26.73129,-12.43063 -7.83942,-15.69579 51.32196,-28.95744 50.53828,-13.74577 -0.78368,15.21163 -13.13137,24.01933 -23.80699,26.1764 z"
             id="path1-9-8"
             sodipodi:nodetypes="zzzz" /></g><g
           id="g7"
           inkscape:label="cat ears"
           style="display:inline;fill:#000000"><path
             id="path7"
             style="font-variation-settings:normal;opacity:1;vector-effect:none;fill:#000000;fill-opacity:1;stroke:none;stroke-width:3.75735;stroke-linecap:butt;stroke-linejoin:miter;stroke-miterlimit:4;stroke-dasharray:none;stroke-dashoffset:0;stroke-opacity:1;-inkscape-stroke:none;stop-color:#000000;stop-opacity:1"
             d="m 60.193741,10.196793 c -2.567669,0.04628 -5.190734,0.341703 -7.856885,0.928109 -6.000972,17.465422 -4.275125,55.304347 11.702645,69.329618 l 3.775997,-4.944401 C 57.606089,62.940446 56.742565,36.368512 61.127017,23.607861 76.196567,20.293392 89.50457,28.80252 97.403356,36.768815 l 4.209564,-5.511809 C 93.418671,21.742722 78.167425,9.8728489 60.193741,10.196793 Z" /><path
             id="path7-7"
             style="font-variation-settings:normal;vector-effect:none;fill:#000000;fill-opacity:1;stroke:none;stroke-width:3.75735;stroke-linecap:butt;stroke-linejoin:miter;stroke-miterlimit:4;stroke-dasharray:none;stroke-dashoffset:0;stroke-opacity:1;-inkscape-stroke:none;stop-color:#000000"
             d="m 202.40017,10.196793 c 2.56767,0.04628 5.19074,0.341703 7.85689,0.928109 6.00097,17.465422 4.27512,55.304347 -11.70265,69.329618 l -3.77599,-4.944401 c 10.2094,-12.569673 11.07293,-39.141607 6.68848,-51.902258 -15.06955,-3.314469 -28.37756,5.194659 -36.27634,13.160954 l -4.20957,-5.511809 c 8.19425,-9.514284 23.4455,-21.3841571 41.41918,-21.060213 z" /></g><path
           id="path5"
           style="display:inline;fill:#000000;fill-opacity:1;stroke:none;stroke-width:0.94812;stroke-dasharray:none"
           d="m 131.32539,22.872514 c -41.280925,1e-6 -74.745891,45.710093 -74.745891,102.096676 6.195192,-9e-5 11.38048,7.25678 12.818339,17.04031 7.48004,-40.97991 20.6068,-59.95312 80.805462,-69.245459 3.45737,-7.716862 5.46883,-16.260711 5.42293,-24.030574 -0.0454,-7.693337 -2.05308,-14.536874 -6.29109,-19.21123 -2.76502,-3.049705 -6.50635,-5.267418 -11.51351,-6.24148 -2.14271,-0.252193 -4.30569,-0.408244 -6.49624,-0.408243 z m 20.6499,3.978568 c 0.0465,0.05035 0.0971,0.09704 0.14314,0.147795 5.05859,5.579415 7.21651,13.381841 7.26571,21.712886 0.0475,8.048878 -1.83172,16.671812 -5.20072,24.564392 30.36887,14.387941 35.42706,38.294355 39.30613,67.269865 1.71856,-9.03671 6.69859,-15.57649 12.58166,-15.57683 0,-46.597549 -22.86316,-85.874871 -54.09592,-98.118108 z"
           inkscape:label="hair" /></g></g></g></svg>
